<?xml version="1.0" encoding="utf-8"?>
<!-- Generator: Adobe Illustrator 21.0.0, SVG Export Plug-In . SVG Version: 6.00 Build 0)  -->
<svg version="1.1" id="Calque_1" xmlns="http://www.w3.org/2000/svg" xmlns:xlink="http://www.w3.org/1999/xlink" x="0px" y="0px"
	 viewBox="0 0 110.5 97.5" style="enable-background:new 0 0 110.5 97.5;" xml:space="preserve">
<style type="text/css">
	.st0{fill:#B0B741;}
	.st1{fill:#FFFFFF;stroke:#262120;stroke-linecap:round;stroke-miterlimit:10;}
</style>
<circle class="st0" cx="64.2" cy="54.2" r="8"/>
<path class="st0" d="M102.6,44.1c-2.8-2.3-6.7-4.4-11.4-6c-0.9-0.3-1.9-0.6-2.9-0.9c0.2-0.7,0.3-1.3,0.5-2c2.2-10.8,0.6-19.3-4.1-22
	c-2.4-1.4-5.5-1.4-9.3,0c-3.4,1.2-7.2,3.6-10.9,6.9c-0.7,0.7-1.5,1.3-2.2,2.1c-0.5-0.5-1-0.9-1.5-1.4c-8.3-7.3-16.4-10.2-21.2-7.4
	c-2.3,1.4-3.9,4.1-4.6,8c-0.6,3.6-0.4,8,0.5,12.8c0.2,1,0.4,2,0.7,3c-1.1,0.3-2.3,0.7-3.3,1c-9.8,3.4-15.6,8.6-15.6,13.9
	c0,2.8,1.6,5.6,4.7,8.3c2.9,2.5,7,4.7,11.8,6.3c0.8,0.3,1.6,0.5,2.4,0.8c-0.3,1.1-0.5,2.2-0.7,3.2c-1.9,10.2-0.3,17.8,4.3,20.5
	c1.2,0.7,2.7,1.1,4.3,1.1c1.6,0,3.3-0.3,5.2-1c3.6-1.3,7.5-3.7,11.3-7c0.6-0.5,1.2-1.1,1.9-1.7c0.8,0.8,1.6,1.5,2.4,2.2
	c5.8,5,11.3,7.6,15.6,7.6c1.6,0,3-0.3,4.2-1.1c2.4-1.4,4.1-4.2,4.8-8.2c0.7-3.7,0.5-8.4-0.4-13.3c-0.2-0.8-0.3-1.6-0.5-2.4
	c0.6-0.2,1.1-0.3,1.7-0.5c10.5-3.5,17-9.1,17-14.6C107.2,49.4,105.6,46.7,102.6,44.1z M76.7,16.8c2.6-0.9,4.7-1,6-0.3
	c1.4,0.8,2.4,2.8,2.9,5.7c0.6,3.3,0.3,7.6-0.6,12.2c-0.1,0.6-0.3,1.2-0.4,1.8c-3.7-0.9-7.8-1.5-12-1.9c-2.5-3.5-5-6.7-7.6-9.5
	c0.7-0.7,1.4-1.3,2.1-1.9C70.4,20,73.7,17.9,76.7,16.8z M74.8,59.5c-1.4,2.5-2.9,4.8-4.3,7c-2.7,0.2-5.4,0.3-8.2,0.3
	c-2.8,0-5.5-0.1-8.1-0.3c-1.5-2.2-3-4.6-4.4-7v0c-1.4-2.4-2.7-4.8-3.8-7.3c1.2-2.4,2.4-4.9,3.8-7.3l0,0c1.4-2.4,2.8-4.7,4.4-6.9
	c2.7-0.2,5.4-0.3,8.2-0.3c2.8,0,5.5,0.1,8.2,0.3c1.5,2.2,2.9,4.5,4.3,6.9c1.4,2.4,2.7,4.9,3.9,7.2C77.5,54.6,76.2,57,74.8,59.5z
	 M80.7,56.6c1.2,2.8,2.2,5.4,3,7.9c-2.6,0.6-5.4,1.1-8.4,1.4c0.9-1.5,1.9-3,2.8-4.6C79,59.8,79.9,58.2,80.7,56.6z M62.4,77
	c-1.8-2-3.6-4.1-5.4-6.5c1.7,0.1,3.5,0.1,5.3,0.1c1.8,0,3.7,0,5.4-0.1C65.9,72.8,64.1,75,62.4,77z M49.2,66.1
	c-3-0.3-5.7-0.8-8.3-1.3c0.8-2.6,1.8-5.2,2.9-7.9c0.8,1.6,1.7,3.1,2.5,4.7v0C47.3,63,48.2,64.6,49.2,66.1z M43.8,47.7
	c-1.1-2.6-2.1-5.2-2.9-7.8c2.6-0.6,5.3-1,8.2-1.4c-0.9,1.5-1.9,3-2.8,4.5l0,0C45.4,44.6,44.6,46.2,43.8,47.7z M62.3,27.6
	c1.8,1.9,3.5,4.1,5.3,6.4c-1.8-0.1-3.5-0.1-5.3-0.1c-1.8,0-3.6,0-5.3,0.1C58.7,31.7,60.5,29.6,62.3,27.6z M78.1,43
	c-0.9-1.5-1.8-3-2.7-4.5c2.9,0.4,5.6,0.8,8.2,1.4c-0.8,2.5-1.8,5.1-2.9,7.7C79.9,46.2,79,44.6,78.1,43z M39.3,33.5
	c-0.9-4.4-1-8.3-0.5-11.5c0.5-2.7,1.4-4.6,2.7-5.3c1.4-0.8,3.7-0.7,6.4,0.3c3.2,1.2,6.7,3.5,10.3,6.6c0.4,0.4,0.9,0.8,1.3,1.2
	c-2.6,2.8-5.2,6-7.7,9.5c-4.2,0.4-8.3,1-12,1.9C39.7,35.3,39.5,34.4,39.3,33.5z M34.9,63.1c-4.3-1.5-8-3.4-10.5-5.6
	c-2.2-1.9-3.4-3.8-3.4-5.3c0-4,6.5-8,13-10.3c1-0.3,2-0.7,3.1-1c1.1,3.7,2.6,7.5,4.4,11.4c-1.8,3.9-3.3,7.8-4.4,11.5
	C36.4,63.6,35.6,63.3,34.9,63.1z M44,88.4c-1,0-1.8-0.2-2.4-0.5c-3.4-2-3.7-9.7-2.4-16.4c0.2-1,0.4-2,0.7-3
	c3.7,0.8,7.7,1.4,12.1,1.8c2.5,3.5,5.1,6.7,7.7,9.5c-0.6,0.6-1.1,1.1-1.7,1.6C52.2,86.4,47.2,88.4,44,88.4z M85.3,70.4
	c2,9.9,0.1,16-2.5,17.5c-3.4,2-10.2-1.6-15.4-6.1c-0.7-0.6-1.5-1.3-2.3-2.1c2.5-2.8,5.1-6,7.5-9.6c4.4-0.4,8.5-1,12.2-1.9
	C85,69,85.1,69.7,85.3,70.4z M89,63.1c-0.5,0.2-1,0.3-1.5,0.5c-1.1-3.6-2.7-7.4-4.6-11.4c1.8-3.9,3.3-7.7,4.4-11.2
	c0.9,0.3,1.8,0.5,2.7,0.8c4.2,1.5,7.7,3.3,10.2,5.3c2.1,1.7,3.2,3.5,3.2,5.1C103.4,55.1,98.9,59.8,89,63.1z"/>
<circle class="st1" cx="54.2" cy="44.2" r="8"/>
<path class="st1" d="M94.6,36.1c-2.8-2.3-6.7-4.4-11.4-6c-0.9-0.3-1.9-0.6-2.9-0.9c0.2-0.7,0.3-1.3,0.5-2C83,16.4,81.4,8,76.6,5.2
	c-2.4-1.4-5.5-1.4-9.3,0c-3.4,1.2-7.2,3.6-10.9,6.9c-0.7,0.7-1.5,1.3-2.2,2.1c-0.5-0.5-1-0.9-1.5-1.4C44.5,5.4,36.4,2.6,31.6,5.3
	c-2.3,1.4-3.9,4.1-4.6,8c-0.6,3.6-0.4,8,0.5,12.8c0.2,1,0.4,2,0.7,3c-1.1,0.3-2.3,0.7-3.3,1c-9.8,3.4-15.6,8.6-15.6,13.9
	c0,2.8,1.6,5.6,4.7,8.3c2.9,2.5,7,4.7,11.8,6.3c0.8,0.3,1.6,0.5,2.4,0.8c-0.3,1.1-0.5,2.2-0.7,3.2c-1.9,10.2-0.3,17.8,4.3,20.5
	c1.2,0.7,2.7,1.1,4.3,1.1c1.6,0,3.3-0.3,5.2-1c3.6-1.3,7.5-3.7,11.3-7c0.6-0.5,1.2-1.1,1.9-1.7c0.8,0.8,1.6,1.5,2.4,2.2
	c5.8,5,11.3,7.6,15.6,7.6c1.6,0,3-0.3,4.2-1.1c2.4-1.4,4.1-4.2,4.8-8.2c0.7-3.7,0.5-8.4-0.4-13.3c-0.2-0.8-0.3-1.6-0.5-2.4
	c0.6-0.2,1.1-0.3,1.7-0.5c10.5-3.5,17-9.1,17-14.6C99.2,41.4,97.6,38.7,94.6,36.1z M68.7,8.8c2.6-0.9,4.7-1,6-0.3
	c1.4,0.8,2.4,2.8,2.9,5.7c0.6,3.3,0.3,7.6-0.6,12.2c-0.1,0.6-0.3,1.2-0.4,1.8c-3.7-0.9-7.8-1.5-12-1.9c-2.5-3.5-5-6.7-7.6-9.5
	c0.7-0.7,1.4-1.3,2.1-1.9C62.4,12,65.7,9.9,68.7,8.8z M66.8,51.5c-1.4,2.5-2.9,4.8-4.3,7c-2.7,0.2-5.4,0.3-8.2,0.3
	c-2.8,0-5.5-0.1-8.1-0.3c-1.5-2.2-3-4.6-4.4-7v0c-1.4-2.4-2.7-4.8-3.8-7.3c1.2-2.4,2.4-4.9,3.8-7.3l0,0c1.4-2.4,2.8-4.7,4.4-6.9
	c2.7-0.2,5.4-0.3,8.2-0.3c2.8,0,5.5,0.1,8.2,0.3c1.5,2.2,2.9,4.5,4.3,6.9c1.4,2.4,2.7,4.9,3.9,7.2C69.5,46.6,68.2,49,66.8,51.5z
	 M72.7,48.6c1.2,2.8,2.2,5.4,3,7.9c-2.6,0.6-5.4,1.1-8.4,1.4c0.9-1.5,1.9-3,2.8-4.6C71,51.8,71.9,50.2,72.7,48.6z M54.4,69
	c-1.8-2-3.6-4.1-5.4-6.5c1.7,0.1,3.5,0.1,5.3,0.1c1.8,0,3.7,0,5.4-0.1C57.9,64.8,56.1,67,54.4,69z M41.2,58.1
	c-3-0.3-5.7-0.8-8.3-1.3c0.8-2.6,1.8-5.2,2.9-7.9c0.8,1.6,1.7,3.1,2.5,4.7v0C39.3,55,40.2,56.5,41.2,58.1z M35.8,39.7
	c-1.1-2.6-2.1-5.2-2.9-7.8c2.6-0.6,5.3-1,8.2-1.4c-0.9,1.5-1.9,3-2.8,4.5l0,0C37.4,36.6,36.6,38.2,35.8,39.7z M54.3,19.6
	c1.8,1.9,3.5,4.1,5.3,6.4c-1.8-0.1-3.5-0.1-5.3-0.1c-1.8,0-3.6,0-5.3,0.1C50.7,23.7,52.5,21.6,54.3,19.6z M70.1,35
	c-0.9-1.5-1.8-3-2.7-4.5c2.9,0.4,5.6,0.8,8.2,1.4c-0.8,2.5-1.8,5.1-2.9,7.7C71.9,38.2,71,36.6,70.1,35z M31.3,25.5
	c-0.9-4.4-1-8.3-0.5-11.5c0.5-2.7,1.4-4.6,2.7-5.3C34.9,7.9,37.2,8,39.9,9c3.2,1.2,6.7,3.5,10.3,6.6c0.4,0.4,0.9,0.8,1.3,1.2
	c-2.6,2.8-5.2,6-7.7,9.5c-4.2,0.4-8.3,1-12,1.9C31.7,27.3,31.5,26.4,31.3,25.5z M26.9,55.1c-4.3-1.5-8-3.4-10.5-5.6
	c-2.2-1.9-3.4-3.8-3.4-5.3c0-4,6.5-8,13-10.3c1-0.3,2-0.7,3.1-1c1.1,3.7,2.6,7.5,4.4,11.4c-1.8,3.9-3.3,7.8-4.4,11.5
	C28.4,55.6,27.6,55.3,26.9,55.1z M36,80.4c-1,0-1.8-0.2-2.4-0.5c-3.4-2-3.7-9.7-2.4-16.4c0.2-1,0.4-2,0.7-3
	c3.7,0.8,7.7,1.4,12.1,1.8c2.5,3.5,5.1,6.7,7.7,9.5c-0.6,0.6-1.1,1.1-1.7,1.6C44.2,78.4,39.2,80.4,36,80.4z M77.3,62.4
	c2,9.9,0.1,16-2.5,17.5c-3.4,2-10.2-1.6-15.4-6.1c-0.7-0.6-1.5-1.3-2.3-2.1c2.5-2.8,5.1-6,7.5-9.6c4.4-0.4,8.5-1,12.2-1.9
	C77,61,77.1,61.7,77.3,62.4z M81,55.1c-0.5,0.2-1,0.3-1.5,0.5c-1.1-3.6-2.7-7.4-4.6-11.4c1.8-3.9,3.3-7.7,4.4-11.2
	c0.9,0.3,1.8,0.5,2.7,0.8c4.2,1.5,7.7,3.3,10.2,5.3c2.1,1.7,3.2,3.5,3.2,5.1C95.4,47.1,90.9,51.8,81,55.1z"/>
</svg>
