<svg width="1440" height="654" viewBox="0 0 1440 654" version="1.1" xmlns="http://www.w3.org/2000/svg" xmlns:xlink="http://www.w3.org/1999/xlink">
<title>Frame 2</title>
<desc>Created using Figma</desc>
<g id="Canvas" transform="translate(900 -458)">
<clipPath id="clip-0" clip-rule="evenodd">
<path d="M -900 458L 540 458L 540 1112L -900 1112L -900 458Z" fill="#FFFFFF"/>
</clipPath>
<g id="Frame 2" clip-path="url(#clip-0)">
<path d="M -900 458L 540 458L 540 1112L -900 1112L -900 458Z" fill="#FFFFFF"/>
<g id="Rectangle">
<use xlink:href="#path0_fill" transform="translate(-131 986)" fill="#53C1DE"/>
</g>
<g id="&#60;Component/&#62;">
<use xlink:href="#path1_fill" transform="translate(-107 1010)" fill="#FFFFFF"/>
</g>
<g id="props">
<use xlink:href="#path2_fill" transform="translate(-32 925)" fill="#828282"/>
</g>
<g id="dispatch">
<use xlink:href="#path3_fill" transform="translate(218 750)" fill="#EB5757"/>
</g>
<g id="payload">
<use xlink:href="#path4_fill" transform="translate(223 497)" fill="#EB5757"/>
</g>
<g id="state">
<use xlink:href="#path5_fill" transform="translate(-245 750)" fill="#EB5757"/>
</g>
<g id="Rectangle">
<use xlink:href="#path0_fill" transform="translate(-131 815)" fill="#53C1DE"/>
</g>
<g id="Container">
<use xlink:href="#path6_fill" transform="translate(-65 839)" fill="#FFFFFF"/>
</g>
<g id="Rectangle">
<use xlink:href="#path7_fill" transform="translate(-94 471)" fill="#EB5757"/>
</g>
<g id="Rectangle">
<use xlink:href="#path7_fill" transform="translate(213 590)" fill="#EB5757"/>
</g>
<g id="action">
<use xlink:href="#path8_fill" transform="translate(270 615)" fill="#FFFFFF"/>
</g>
<g id="reducer">
<use xlink:href="#path9_fill" transform="translate(-48 495)" fill="#FFFFFF"/>
</g>
<g id="Ellipse 2">
<use xlink:href="#path10_fill" transform="translate(-425 527)" fill="#6FCF97"/>
</g>
<g id="store">
<use xlink:href="#path11_fill" transform="translate(-351 621)" fill="#FFFFFF"/>
</g>
<g id="Arrow">
<use xlink:href="#path12_stroke" transform="matrix(5.27865e-17 1 -1 7.10295e-17 -88 918)" fill="#828282"/>
</g>
<g id="Arrow">
<use xlink:href="#path12_stroke" transform="matrix(6.12323e-17 -1 1 6.12323e-17 107 976)" fill="#828282"/>
</g>
<g id="Rectangle">
<use xlink:href="#path13_fill" transform="translate(-774 986)" fill="#53C1DE"/>
</g>
<g id="&#60;Component/&#62;">
<use xlink:href="#path1_fill" transform="translate(-750 1010)" fill="#FFFFFF"/>
</g>
<g id="props">
<use xlink:href="#path2_fill" transform="translate(-675 925)" fill="#828282"/>
</g>
<g id="Rectangle">
<use xlink:href="#path13_fill" transform="translate(-774 815)" fill="#53C1DE"/>
</g>
<g id="Container">
<use xlink:href="#path6_fill" transform="translate(-708 839)" fill="#FFFFFF"/>
</g>
<g id="Arrow">
<use xlink:href="#path14_stroke" transform="matrix(5.27865e-17 1 -1 7.10295e-17 -731 918)" fill="#828282"/>
</g>
<g id="Arrow">
<use xlink:href="#path14_stroke" transform="matrix(6.12323e-17 -1 1 6.12323e-17 -536 976)" fill="#828282"/>
</g>
<g id="Arrow">
<use xlink:href="#path15_stroke" transform="matrix(0.651051 -0.759034 0.759034 0.651051 166 776.63)" fill="#EB5757"/>
</g>
<g id="Arrow">
<use xlink:href="#path15_stroke" transform="matrix(0.780049 0.625718 -0.625718 0.780049 -183.577 727.71)" fill="#EB5757"/>
</g>
<g id="state">
<use xlink:href="#path5_fill" transform="translate(-446 751)" fill="#EB5757"/>
</g>
<g id="Arrow">
<use xlink:href="#path16_stroke" transform="matrix(-0.707107 0.707107 -0.707107 -0.707107 -437.039 724.834)" fill="#EB5757"/>
</g>
<g id="Arrow">
<use xlink:href="#path15_stroke" transform="matrix(-0.866025 -0.5 0.5 -0.866025 219.575 555.644)" fill="#EB5757"/>
</g>
<g id="Arrow">
<use xlink:href="#path15_stroke" transform="matrix(-0.863132 0.504978 -0.504978 -0.863132 -131.015 520)" fill="#EB5757"/>
</g>
</g>
</g>
<defs>
<path id="path0_fill" d="M 0 2C 0 0.895431 0.895431 0 2 0L 285 0C 286.105 0 287 0.895431 287 2L 287 90C 287 91.1046 286.105 92 285 92L 2 92C 0.895431 92 0 91.1046 0 90L 0 2Z"/>
<path id="path1_fill" d="M 4.64062 21.6797L 15.6445 26.127L 15.6445 29.5723L 1.26562 22.9102L 1.26562 20.3438L 15.6445 13.6992L 15.6445 17.1445L 4.64062 21.6797ZM 40.1133 24.8789C 39.7969 27.5859 38.7949 29.6777 37.1074 31.1543C 35.4316 32.6191 33.1992 33.3516 30.4102 33.3516C 27.3867 33.3516 24.9609 32.2676 23.1328 30.0996C 21.3164 27.9316 20.4082 25.0312 20.4082 21.3984L 20.4082 18.9375C 20.4082 16.5586 20.8301 14.4668 21.6738 12.6621C 22.5293 10.8574 23.7363 9.47461 25.2949 8.51367C 26.8535 7.54101 28.6582 7.05469 30.709 7.05469C 33.4277 7.05469 35.6074 7.81641 37.248 9.33984C 38.8887 10.8516 39.8437 12.9492 40.1133 15.6328L 36.7207 15.6328C 36.4277 13.5938 35.7891 12.1172 34.8047 11.2031C 33.832 10.2891 32.4668 9.83203 30.709 9.83203C 28.5527 9.83203 26.8594 10.6289 25.6289 12.2227C 24.4102 13.8164 23.8008 16.084 23.8008 19.0254L 23.8008 21.5039C 23.8008 24.2812 24.3809 26.4902 25.541 28.1309C 26.7012 29.7715 28.3242 30.5918 30.4102 30.5918C 32.2852 30.5918 33.7207 30.1699 34.7168 29.3262C 35.7246 28.4707 36.3926 26.9883 36.7207 24.8789L 40.1133 24.8789ZM 43.3652 23.3145C 43.3652 21.4512 43.7285 19.7754 44.4551 18.2871C 45.1934 16.7988 46.2129 15.6504 47.5137 14.8418C 48.8262 14.0332 50.3203 13.6289 51.9961 13.6289C 54.5859 13.6289 56.6777 14.5254 58.2715 16.3184C 59.877 18.1113 60.6797 20.4961 60.6797 23.4727L 60.6797 23.7012C 60.6797 25.5527 60.3223 27.2168 59.6074 28.6934C 58.9043 30.1582 57.8906 31.3008 56.5664 32.1211C 55.2539 32.9414 53.7422 33.3516 52.0312 33.3516C 49.4531 33.3516 47.3613 32.4551 45.7559 30.6621C 44.1621 28.8691 43.3652 26.4961 43.3652 23.543L 43.3652 23.3145ZM 46.6348 23.7012C 46.6348 25.8105 47.1211 27.5039 48.0938 28.7812C 49.0781 30.0586 50.3906 30.6973 52.0312 30.6973C 53.6836 30.6973 54.9961 30.0527 55.9688 28.7637C 56.9414 27.4629 57.4277 25.6465 57.4277 23.3145C 57.4277 21.2285 56.9297 19.541 55.9336 18.252C 54.9492 16.9512 53.6367 16.3008 51.9961 16.3008C 50.3906 16.3008 49.0957 16.9395 48.1113 18.2168C 47.127 19.4941 46.6348 21.3223 46.6348 23.7012ZM 67.8164 13.9805L 67.9043 16.0898C 69.2988 14.4492 71.1797 13.6289 73.5469 13.6289C 76.207 13.6289 78.0176 14.6484 78.9785 16.6875C 79.6113 15.7734 80.4316 15.0352 81.4395 14.4727C 82.459 13.9102 83.6602 13.6289 85.043 13.6289C 89.2148 13.6289 91.3359 15.8379 91.4062 20.2559L 91.4062 33L 88.1543 33L 88.1543 20.4492C 88.1543 19.0898 87.8438 18.0762 87.2227 17.4082C 86.6016 16.7285 85.5586 16.3887 84.0938 16.3887C 82.8867 16.3887 81.8848 16.752 81.0879 17.4785C 80.291 18.1934 79.8281 19.1602 79.6992 20.3789L 79.6992 33L 76.4297 33L 76.4297 20.5371C 76.4297 17.7715 75.0762 16.3887 72.3691 16.3887C 70.2363 16.3887 68.7773 17.2969 67.9922 19.1133L 67.9922 33L 64.7402 33L 64.7402 13.9805L 67.8164 13.9805ZM 112.395 23.7012C 112.395 26.5957 111.732 28.9277 110.408 30.6973C 109.084 32.4668 107.291 33.3516 105.029 33.3516C 102.721 33.3516 100.904 32.6191 99.5801 31.1543L 99.5801 40.3125L 96.3281 40.3125L 96.3281 13.9805L 99.2988 13.9805L 99.457 16.0898C 100.781 14.4492 102.621 13.6289 104.977 13.6289C 107.262 13.6289 109.066 14.4902 110.391 16.2129C 111.727 17.9355 112.395 20.332 112.395 23.4023L 112.395 23.7012ZM 109.143 23.332C 109.143 21.1875 108.686 19.4941 107.771 18.252C 106.857 17.0098 105.604 16.3887 104.01 16.3887C 102.041 16.3887 100.564 17.2617 99.5801 19.0078L 99.5801 28.0957C 100.553 29.8301 102.041 30.6973 104.045 30.6973C 105.604 30.6973 106.84 30.082 107.754 28.8516C 108.68 27.6094 109.143 25.7695 109.143 23.332ZM 115.682 23.3145C 115.682 21.4512 116.045 19.7754 116.771 18.2871C 117.51 16.7988 118.529 15.6504 119.83 14.8418C 121.143 14.0332 122.637 13.6289 124.312 13.6289C 126.902 13.6289 128.994 14.5254 130.588 16.3184C 132.193 18.1113 132.996 20.4961 132.996 23.4727L 132.996 23.7012C 132.996 25.5527 132.639 27.2168 131.924 28.6934C 131.221 30.1582 130.207 31.3008 128.883 32.1211C 127.57 32.9414 126.059 33.3516 124.348 33.3516C 121.77 33.3516 119.678 32.4551 118.072 30.6621C 116.479 28.8691 115.682 26.4961 115.682 23.543L 115.682 23.3145ZM 118.951 23.7012C 118.951 25.8105 119.437 27.5039 120.41 28.7812C 121.395 30.0586 122.707 30.6973 124.348 30.6973C 126 30.6973 127.313 30.0527 128.285 28.7637C 129.258 27.4629 129.744 25.6465 129.744 23.3145C 129.744 21.2285 129.246 19.541 128.25 18.252C 127.266 16.9512 125.953 16.3008 124.312 16.3008C 122.707 16.3008 121.412 16.9395 120.428 18.2168C 119.443 19.4941 118.951 21.3223 118.951 23.7012ZM 140.15 13.9805L 140.256 16.3711C 141.709 14.543 143.607 13.6289 145.951 13.6289C 149.971 13.6289 151.998 15.8965 152.033 20.4316L 152.033 33L 148.781 33L 148.781 20.4141C 148.77 19.043 148.453 18.0293 147.832 17.373C 147.223 16.7168 146.268 16.3887 144.967 16.3887C 143.912 16.3887 142.986 16.6699 142.189 17.2324C 141.393 17.7949 140.771 18.5332 140.326 19.4473L 140.326 33L 137.074 33L 137.074 13.9805L 140.15 13.9805ZM 164.83 33.3516C 162.252 33.3516 160.154 32.5078 158.537 30.8203C 156.92 29.1211 156.111 26.8535 156.111 24.0176L 156.111 23.4199C 156.111 21.5332 156.469 19.8516 157.184 18.375C 157.91 16.8867 158.918 15.7266 160.207 14.8945C 161.508 14.0508 162.914 13.6289 164.426 13.6289C 166.898 13.6289 168.82 14.4434 170.191 16.0723C 171.562 17.7012 172.248 20.0332 172.248 23.0684L 172.248 24.4219L 159.363 24.4219C 159.41 26.2969 159.955 27.8145 160.998 28.9746C 162.053 30.123 163.389 30.6973 165.006 30.6973C 166.154 30.6973 167.127 30.4629 167.924 29.9941C 168.721 29.5254 169.418 28.9043 170.016 28.1309L 172.002 29.6777C 170.408 32.127 168.018 33.3516 164.83 33.3516ZM 164.426 16.3008C 163.113 16.3008 162.012 16.7812 161.121 17.7422C 160.23 18.6914 159.68 20.0273 159.469 21.75L 168.996 21.75L 168.996 21.5039C 168.902 19.8516 168.457 18.5742 167.66 17.6719C 166.863 16.7578 165.785 16.3008 164.426 16.3008ZM 179.104 13.9805L 179.209 16.3711C 180.662 14.543 182.561 13.6289 184.904 13.6289C 188.924 13.6289 190.951 15.8965 190.986 20.4316L 190.986 33L 187.734 33L 187.734 20.4141C 187.723 19.043 187.406 18.0293 186.785 17.373C 186.176 16.7168 185.221 16.3887 183.92 16.3887C 182.865 16.3887 181.939 16.6699 181.143 17.2324C 180.346 17.7949 179.725 18.5332 179.279 19.4473L 179.279 33L 176.027 33L 176.027 13.9805L 179.104 13.9805ZM 200.303 9.375L 200.303 13.9805L 203.854 13.9805L 203.854 16.4941L 200.303 16.4941L 200.303 28.2891C 200.303 29.0508 200.461 29.625 200.777 30.0117C 201.094 30.3867 201.633 30.5742 202.395 30.5742C 202.77 30.5742 203.285 30.5039 203.941 30.3633L 203.941 33C 203.086 33.2344 202.254 33.3516 201.445 33.3516C 199.992 33.3516 198.896 32.9121 198.158 32.0332C 197.42 31.1543 197.051 29.9062 197.051 28.2891L 197.051 16.4941L 193.588 16.4941L 193.588 13.9805L 197.051 13.9805L 197.051 9.375L 200.303 9.375ZM 208.318 35.1973L 205.523 35.1973L 216.211 7.40625L 218.988 7.40625L 208.318 35.1973ZM 234.018 21.5742L 222.398 17.0215L 222.398 13.6816L 237.41 20.3262L 237.41 22.8926L 222.398 29.5547L 222.398 26.1797L 234.018 21.5742Z"/>
<path id="path2_fill" d="M 17.7715 23.5781C 17.5371 25.5117 17.0156 27.252 16.207 28.7988C 15.3984 30.3457 14.3965 31.5059 13.2012 32.2793C 12.0059 33.041 10.6816 33.4043 9.22852 33.3691C 7.02539 33.3223 5.33789 32.5781 4.16602 31.1367L 2.46094 40.3125L -0.720703 40.3125L 3.84961 13.9805L 6.73242 13.9629L 6.38086 16.0898C 7.95117 14.4023 9.83203 13.582 12.0234 13.6289C 13.8516 13.6758 15.2754 14.3496 16.2949 15.6504C 17.3145 16.9512 17.8535 18.7441 17.9121 21.0293C 17.9238 21.7793 17.8945 22.5059 17.8242 23.209L 17.7715 23.5781ZM 14.6426 23.209L 14.7305 21.7324C 14.7305 20.0215 14.4023 18.7148 13.7461 17.8125C 13.1016 16.8984 12.1641 16.418 10.9336 16.3711C 9.09375 16.3242 7.50586 17.1973 6.16992 18.9902L 4.57031 28.1133C 5.28516 29.8008 6.56836 30.668 8.41992 30.7148C 10.002 30.75 11.3437 30.1348 12.4453 28.8691C 13.5586 27.5918 14.291 25.7051 14.6426 23.209ZM 32.168 16.8809L 30.6738 16.7227C 28.6348 16.7227 27.0293 17.6426 25.8574 19.4824L 23.5195 33L 20.3379 33L 23.6426 13.9805L 26.7188 13.9629L 26.2441 16.1777C 27.5918 14.4082 29.1797 13.5469 31.0078 13.5938C 31.3945 13.5938 31.8984 13.6816 32.5195 13.8574L 32.168 16.8809ZM 42.5391 13.6289C 44.1328 13.6523 45.498 14.0859 46.6348 14.9297C 47.7715 15.7734 48.6094 16.9395 49.1484 18.4277C 49.6992 19.9043 49.8867 21.5215 49.7109 23.2793L 49.6758 23.666C 49.4531 25.5176 48.9023 27.1934 48.0234 28.6934C 47.1445 30.1816 46.0078 31.3418 44.6133 32.1738C 43.2188 33.0059 41.6895 33.3984 40.0254 33.3516C 38.4434 33.3281 37.0781 32.8945 35.9297 32.0508C 34.793 31.207 33.9609 30.0586 33.4336 28.6055C 32.9062 27.1523 32.7188 25.5527 32.8711 23.8066C 33.0469 21.8379 33.5801 20.0684 34.4707 18.498C 35.3613 16.9277 36.5039 15.7148 37.8984 14.8594C 39.3047 13.9922 40.8516 13.582 42.5391 13.6289ZM 36.0703 23.8242C 35.9883 24.5625 35.9883 25.3301 36.0703 26.127C 36.1875 27.5098 36.5977 28.6113 37.3008 29.4316C 38.0156 30.252 38.9648 30.6797 40.1484 30.7148C 41.2031 30.75 42.1758 30.4922 43.0664 29.9414C 43.957 29.3789 44.707 28.5352 45.3164 27.4102C 45.9258 26.2852 46.3184 25.0371 46.4941 23.666C 46.5879 22.5879 46.6055 21.6797 46.5469 20.9414C 46.4062 19.5234 45.9785 18.4043 45.2637 17.584C 44.5488 16.7637 43.5996 16.3301 42.416 16.2832C 40.7754 16.248 39.3809 16.8926 38.2324 18.2168C 37.084 19.541 36.375 21.2754 36.1055 23.4199L 36.0703 23.8242ZM 69.3105 23.5781C 69.0762 25.5117 68.5547 27.252 67.7461 28.7988C 66.9375 30.3457 65.9355 31.5059 64.7402 32.2793C 63.5449 33.041 62.2207 33.4043 60.7676 33.3691C 58.5645 33.3223 56.877 32.5781 55.7051 31.1367L 54 40.3125L 50.8184 40.3125L 55.3887 13.9805L 58.2715 13.9629L 57.9199 16.0898C 59.4902 14.4023 61.3711 13.582 63.5625 13.6289C 65.3906 13.6758 66.8145 14.3496 67.834 15.6504C 68.8535 16.9512 69.3926 18.7441 69.4512 21.0293C 69.4629 21.7793 69.4336 22.5059 69.3633 23.209L 69.3105 23.5781ZM 66.1816 23.209L 66.2695 21.7324C 66.2695 20.0215 65.9414 18.7148 65.2852 17.8125C 64.6406 16.8984 63.7031 16.418 62.4727 16.3711C 60.6328 16.3242 59.0449 17.1973 57.709 18.9902L 56.1094 28.1133C 56.8242 29.8008 58.1074 30.668 59.959 30.7148C 61.541 30.75 62.8828 30.1348 63.9844 28.8691C 65.0977 27.5918 65.8301 25.7051 66.1816 23.209ZM 83.6543 27.8496C 83.8301 26.5371 83.1094 25.6113 81.4922 25.0723L 78.1875 24.1055C 75.3984 23.1445 74.0508 21.5508 74.1445 19.3242C 74.2266 17.6484 74.9883 16.2773 76.4297 15.2109C 77.8828 14.1328 79.5879 13.6055 81.5449 13.6289C 83.4668 13.6523 85.0254 14.2148 86.2207 15.3164C 87.4277 16.4062 88.0078 17.8301 87.9609 19.5879L 84.7969 19.5703C 84.8203 18.6211 84.5215 17.8477 83.9004 17.25C 83.2793 16.6523 82.4531 16.3418 81.4219 16.3184C 80.3203 16.2949 79.3711 16.5645 78.5742 17.127C 77.8359 17.6543 77.4082 18.3457 77.291 19.2012C 77.1387 20.3027 77.8125 21.1055 79.3125 21.6094L 80.9121 22.0488C 83.0918 22.6113 84.6387 23.3438 85.5527 24.2461C 86.4668 25.1484 86.8887 26.2676 86.8184 27.6035C 86.748 28.7871 86.3613 29.8184 85.6582 30.6973C 84.9551 31.5762 84.0176 32.25 82.8457 32.7188C 81.6738 33.1758 80.4258 33.3867 79.1016 33.3516C 77.0859 33.3281 75.4219 32.7422 74.1094 31.5938C 72.7969 30.4336 72.1641 28.9453 72.2109 27.1289L 75.3926 27.1465C 75.3926 28.2129 75.7324 29.0684 76.4121 29.7129C 77.0918 30.3574 78.0234 30.6797 79.207 30.6797C 80.3672 30.7031 81.3691 30.4629 82.2129 29.959C 83.0566 29.4434 83.5371 28.7402 83.6543 27.8496Z"/>
<path id="path3_fill" d="M 8.4375 12.7656C 10.0104 12.8073 11.2812 13.4375 12.25 14.6562L 13.9062 6L 18.3281 6L 14.1719 30L 10.2344 30L 10.4844 28.1875C 9.22396 29.6562 7.75521 30.3698 6.07812 30.3281C 5.02604 30.3177 4.10417 30.0417 3.3125 29.5C 2.52083 28.9583 1.90625 28.1823 1.46875 27.1719C 1.04167 26.151 0.807292 25.0156 0.765625 23.7656C 0.734375 23.1094 0.75 22.474 0.8125 21.8594L 0.90625 21.1562C 1.15625 19.4271 1.63542 17.9062 2.34375 16.5938C 3.0625 15.2812 3.9375 14.3073 4.96875 13.6719C 6.01042 13.0365 7.16667 12.7344 8.4375 12.7656ZM 5.23438 21.8594C 5.15104 22.651 5.125 23.3177 5.15625 23.8594C 5.26042 25.6927 6 26.625 7.375 26.6562C 8.61458 26.7083 9.69271 26.125 10.6094 24.9062L 11.8125 18.1875C 11.4062 17.0729 10.5938 16.4896 9.375 16.4375C 8.30208 16.4062 7.40625 16.8229 6.6875 17.6875C 5.97917 18.5417 5.49479 19.9323 5.23438 21.8594ZM 22.3594 30L 17.9219 30L 20.8594 13.0938L 25.2969 13.0938L 22.3594 30ZM 21.375 8.79688C 21.3542 8.09896 21.5833 7.52083 22.0625 7.0625C 22.5417 6.60417 23.1198 6.375 23.7969 6.375C 24.4635 6.35417 25.0417 6.55729 25.5312 6.98438C 26.0208 7.41146 26.276 7.96354 26.2969 8.64062C 26.3177 9.28646 26.099 9.84896 25.6406 10.3281C 25.1927 10.8073 24.6042 11.0573 23.875 11.0781C 23.2188 11.099 22.6406 10.901 22.1406 10.4844C 21.651 10.0677 21.3958 9.50521 21.375 8.79688ZM 35.9062 25.2344C 36.0729 24.401 35.4948 23.7969 34.1719 23.4219L 32.75 23.0625C 29.3854 22.1354 27.75 20.5 27.8438 18.1562C 27.8958 16.5625 28.599 15.2656 29.9531 14.2656C 31.3177 13.2552 32.9583 12.7604 34.875 12.7812C 36.7812 12.8021 38.3229 13.3073 39.5 14.2969C 40.6771 15.2865 41.276 16.6042 41.2969 18.25L 36.9219 18.2344C 36.9427 16.7865 36.224 16.0521 34.7656 16.0312C 34.0781 16.0312 33.4792 16.2031 32.9688 16.5469C 32.4688 16.8906 32.1615 17.3542 32.0469 17.9375C 31.8906 18.7708 32.5208 19.3594 33.9375 19.7031L 34.5625 19.8438C 36 20.1875 37.099 20.5833 37.8594 21.0312C 38.6198 21.4688 39.2031 22.0156 39.6094 22.6719C 40.026 23.3281 40.2188 24.1146 40.1875 25.0312C 40.1562 26.1042 39.8073 27.0417 39.1406 27.8438C 38.4844 28.6458 37.5781 29.2656 36.4219 29.7031C 35.276 30.1406 34.0677 30.3438 32.7969 30.3125C 30.9219 30.2917 29.3594 29.7552 28.1094 28.7031C 26.8594 27.6406 26.224 26.2708 26.2031 24.5938L 30.3594 24.625C 30.401 26.2396 31.2656 27.0573 32.9531 27.0781C 33.7656 27.0781 34.4323 26.9115 34.9531 26.5781C 35.4844 26.2448 35.8021 25.7969 35.9062 25.2344ZM 58.4688 21.5938C 58.25 23.3646 57.7865 24.9375 57.0781 26.3125C 56.3698 27.6875 55.4896 28.7083 54.4375 29.375C 53.3854 30.0417 52.2188 30.3594 50.9375 30.3281C 49.3021 30.2865 48.0104 29.6771 47.0625 28.5L 45.5156 36.5L 41.1094 36.5L 45.1562 13.0938L 49.2188 13.0781L 48.9219 14.7812C 50.1406 13.4062 51.5781 12.7396 53.2344 12.7812C 54.8906 12.8229 56.1771 13.4271 57.0938 14.5938C 58.0104 15.75 58.5 17.3229 58.5625 19.3125C 58.5833 19.9583 58.5521 20.7188 58.4688 21.5938ZM 54.0938 21.2656L 54.1875 19.7656C 54.2083 18.7552 54.0208 17.9531 53.625 17.3594C 53.2396 16.7656 52.6719 16.4583 51.9219 16.4375C 50.6406 16.3958 49.5833 16.9375 48.75 18.0625L 47.4844 25.0312C 47.8698 26.0833 48.6979 26.6302 49.9688 26.6719C 51.0312 26.7031 51.9167 26.2917 52.625 25.4375C 53.3333 24.5833 53.8229 23.1927 54.0938 21.2656ZM 69.6406 30C 69.5052 29.5729 69.4479 29.0625 69.4688 28.4688C 68.1979 29.7396 66.7604 30.3542 65.1562 30.3125C 63.6771 30.2917 62.4479 29.8125 61.4688 28.875C 60.5 27.9271 60.0469 26.7604 60.1094 25.375C 60.1823 23.5312 60.9531 22.1198 62.4219 21.1406C 63.901 20.151 65.8802 19.6562 68.3594 19.6562L 70.4219 19.6875L 70.6406 18.6719C 70.7031 18.3281 70.7188 18 70.6875 17.6875C 70.6354 17.1979 70.4479 16.8177 70.125 16.5469C 69.8125 16.2656 69.3958 16.1198 68.875 16.1094C 68.1875 16.0885 67.6042 16.2604 67.125 16.625C 66.6458 16.9792 66.3385 17.4948 66.2031 18.1719L 61.7812 18.1875C 61.8542 16.5729 62.5938 15.2656 64 14.2656C 65.4167 13.2552 67.1615 12.7604 69.2344 12.7812C 71.151 12.8229 72.651 13.3958 73.7344 14.5C 74.8177 15.5938 75.2708 17.0052 75.0938 18.7344L 73.7969 26.8281L 73.7188 27.8281C 73.6979 28.5677 73.7865 29.1927 73.9844 29.7031L 73.9688 30L 69.6406 30ZM 66.25 26.8906C 67.5208 26.9323 68.6302 26.3802 69.5781 25.2344L 70.125 22.3125L 68.5938 22.2969C 66.9688 22.3385 65.7969 22.8333 65.0781 23.7812C 64.8177 24.125 64.6562 24.5469 64.5938 25.0469C 64.5104 25.6094 64.625 26.0573 64.9375 26.3906C 65.2604 26.7135 65.6979 26.8802 66.25 26.8906ZM 85.6094 8.9375L 84.875 13.0938L 87.6875 13.0938L 87.1094 16.4062L 84.2969 16.4062L 82.8594 24.875C 82.7969 25.4062 82.8385 25.8125 82.9844 26.0938C 83.1302 26.375 83.4844 26.526 84.0469 26.5469C 84.2135 26.5573 84.6615 26.5312 85.3906 26.4688L 85.0781 29.9219C 84.2969 30.1823 83.4531 30.3021 82.5469 30.2812C 81.099 30.2604 80.0208 29.8073 79.3125 28.9219C 78.6042 28.0365 78.3125 26.8385 78.4375 25.3281L 79.8906 16.4062L 77.5 16.4062L 78.0781 13.0938L 80.4688 13.0938L 81.1875 8.9375L 85.6094 8.9375ZM 94.7344 26.6875C 95.5469 26.7083 96.224 26.4896 96.7656 26.0312C 97.3073 25.5625 97.6615 24.9427 97.8281 24.1719L 101.969 24.1562C 101.896 25.3438 101.521 26.4115 100.844 27.3594C 100.177 28.3073 99.2812 29.0469 98.1562 29.5781C 97.0417 30.1094 95.8646 30.3594 94.625 30.3281C 92.5729 30.2969 90.9479 29.5885 89.75 28.2031C 88.5521 26.8177 87.974 24.974 88.0156 22.6719L 88.0625 21.8125L 88.0781 21.6406C 88.3594 18.8906 89.2865 16.7135 90.8594 15.1094C 92.4323 13.4948 94.375 12.7188 96.6875 12.7812C 98.5938 12.8229 100.104 13.4479 101.219 14.6562C 102.344 15.8542 102.896 17.4375 102.875 19.4062L 98.7656 19.4062C 98.7656 18.5 98.5677 17.7865 98.1719 17.2656C 97.776 16.7448 97.1823 16.4635 96.3906 16.4219C 94.2865 16.3594 93.0104 17.8958 92.5625 21.0312C 92.4062 22.1667 92.349 23.125 92.3906 23.9062C 92.4948 25.7292 93.276 26.6562 94.7344 26.6875ZM 110.391 14.9688C 111.714 13.4896 113.24 12.7604 114.969 12.7812C 116.646 12.8229 117.875 13.4271 118.656 14.5938C 119.448 15.75 119.745 17.3333 119.547 19.3438L 117.766 30L 113.359 30L 115.156 19.2969C 115.208 18.8906 115.219 18.5156 115.188 18.1719C 115.083 17.0469 114.427 16.4688 113.219 16.4375C 112.031 16.3958 110.99 16.9062 110.094 17.9688L 107.969 30L 103.562 30L 107.719 6L 112.141 6L 110.391 14.9688Z"/>
<path id="path4_fill" d="M 16.2812 21.5938C 16.0625 23.3646 15.599 24.9375 14.8906 26.3125C 14.1823 27.6875 13.3021 28.7083 12.25 29.375C 11.1979 30.0417 10.0312 30.3594 8.75 30.3281C 7.11458 30.2865 5.82292 29.6771 4.875 28.5L 3.32812 36.5L -1.07812 36.5L 2.96875 13.0938L 7.03125 13.0781L 6.73438 14.7812C 7.95312 13.4062 9.39062 12.7396 11.0469 12.7812C 12.7031 12.8229 13.9896 13.4271 14.9062 14.5938C 15.8229 15.75 16.3125 17.3229 16.375 19.3125C 16.3958 19.9583 16.3646 20.7188 16.2812 21.5938ZM 11.9062 21.2656L 12 19.7656C 12.0208 18.7552 11.8333 17.9531 11.4375 17.3594C 11.0521 16.7656 10.4844 16.4583 9.73438 16.4375C 8.45312 16.3958 7.39583 16.9375 6.5625 18.0625L 5.29688 25.0312C 5.68229 26.0833 6.51042 26.6302 7.78125 26.6719C 8.84375 26.7031 9.72917 26.2917 10.4375 25.4375C 11.1458 24.5833 11.6354 23.1927 11.9062 21.2656ZM 27.4531 30C 27.3177 29.5729 27.2604 29.0625 27.2812 28.4688C 26.0104 29.7396 24.5729 30.3542 22.9688 30.3125C 21.4896 30.2917 20.2604 29.8125 19.2812 28.875C 18.3125 27.9271 17.8594 26.7604 17.9219 25.375C 17.9948 23.5312 18.7656 22.1198 20.2344 21.1406C 21.7135 20.151 23.6927 19.6562 26.1719 19.6562L 28.2344 19.6875L 28.4531 18.6719C 28.5156 18.3281 28.5312 18 28.5 17.6875C 28.4479 17.1979 28.2604 16.8177 27.9375 16.5469C 27.625 16.2656 27.2083 16.1198 26.6875 16.1094C 26 16.0885 25.4167 16.2604 24.9375 16.625C 24.4583 16.9792 24.151 17.4948 24.0156 18.1719L 19.5938 18.1875C 19.6667 16.5729 20.4062 15.2656 21.8125 14.2656C 23.2292 13.2552 24.974 12.7604 27.0469 12.7812C 28.9635 12.8229 30.4635 13.3958 31.5469 14.5C 32.6302 15.5938 33.0833 17.0052 32.9062 18.7344L 31.6094 26.8281L 31.5312 27.8281C 31.5104 28.5677 31.599 29.1927 31.7969 29.7031L 31.7812 30L 27.4531 30ZM 24.0625 26.8906C 25.3333 26.9323 26.4427 26.3802 27.3906 25.2344L 27.9375 22.3125L 26.4062 22.2969C 24.7812 22.3385 23.6094 22.8333 22.8906 23.7812C 22.6302 24.125 22.4688 24.5469 22.4062 25.0469C 22.3229 25.6094 22.4375 26.0573 22.75 26.3906C 23.0729 26.7135 23.5104 26.8802 24.0625 26.8906ZM 41.4062 23.5625L 46.2344 13.0938L 51.1406 13.0938L 41.25 32.5469C 40.5417 34.0365 39.7083 35.1302 38.75 35.8281C 37.8021 36.526 36.7031 36.875 35.4531 36.875C 34.9635 36.875 34.2552 36.7656 33.3281 36.5469L 33.6562 33.1094L 34.2656 33.1406C 35.7031 33.1823 36.7552 32.6562 37.4219 31.5625L 38.3906 29.7656L 35.625 13.0938L 40.1875 13.0938L 41.4062 23.5625ZM 54.6406 30L 50.2031 30L 54.375 6L 58.7969 6L 54.6406 30ZM 68.0625 12.7812C 69.5521 12.8021 70.8333 13.1875 71.9062 13.9375C 72.9896 14.6771 73.7812 15.7031 74.2812 17.0156C 74.7917 18.3177 74.974 19.7656 74.8281 21.3594C 74.5885 24.0469 73.651 26.224 72.0156 27.8906C 70.3906 29.5469 68.3802 30.3542 65.9844 30.3125C 64.5156 30.2917 63.2448 29.9167 62.1719 29.1875C 61.099 28.4479 60.3073 27.4271 59.7969 26.125C 59.2865 24.8229 59.1042 23.3854 59.25 21.8125C 59.5208 19.0208 60.4688 16.8021 62.0938 15.1562C 63.7188 13.5104 65.7083 12.7188 68.0625 12.7812ZM 63.6094 23.4219C 63.6302 24.4219 63.8646 25.2135 64.3125 25.7969C 64.7604 26.3698 65.3906 26.6667 66.2031 26.6875C 67.5573 26.7292 68.6198 26.1094 69.3906 24.8281C 70.1615 23.5365 70.5208 21.8438 70.4688 19.75C 70.4271 18.75 70.1823 17.9531 69.7344 17.3594C 69.2969 16.7552 68.6667 16.4427 67.8438 16.4219C 66.5312 16.3802 65.4792 17 64.6875 18.2812C 63.9062 19.5521 63.5469 21.2656 63.6094 23.4219ZM 85.8906 30C 85.7552 29.5729 85.6979 29.0625 85.7188 28.4688C 84.4479 29.7396 83.0104 30.3542 81.4062 30.3125C 79.9271 30.2917 78.6979 29.8125 77.7188 28.875C 76.75 27.9271 76.2969 26.7604 76.3594 25.375C 76.4323 23.5312 77.2031 22.1198 78.6719 21.1406C 80.151 20.151 82.1302 19.6562 84.6094 19.6562L 86.6719 19.6875L 86.8906 18.6719C 86.9531 18.3281 86.9688 18 86.9375 17.6875C 86.8854 17.1979 86.6979 16.8177 86.375 16.5469C 86.0625 16.2656 85.6458 16.1198 85.125 16.1094C 84.4375 16.0885 83.8542 16.2604 83.375 16.625C 82.8958 16.9792 82.5885 17.4948 82.4531 18.1719L 78.0312 18.1875C 78.1042 16.5729 78.8438 15.2656 80.25 14.2656C 81.6667 13.2552 83.4115 12.7604 85.4844 12.7812C 87.401 12.8229 88.901 13.3958 89.9844 14.5C 91.0677 15.5938 91.5208 17.0052 91.3438 18.7344L 90.0469 26.8281L 89.9688 27.8281C 89.9479 28.5677 90.0365 29.1927 90.2344 29.7031L 90.2188 30L 85.8906 30ZM 82.5 26.8906C 83.7708 26.9323 84.8802 26.3802 85.8281 25.2344L 86.375 22.3125L 84.8438 22.2969C 83.2188 22.3385 82.0469 22.8333 81.3281 23.7812C 81.0677 24.125 80.9062 24.5469 80.8438 25.0469C 80.7604 25.6094 80.875 26.0573 81.1875 26.3906C 81.5104 26.7135 81.9479 26.8802 82.5 26.8906ZM 101.312 12.7656C 102.885 12.8073 104.156 13.4375 105.125 14.6562L 106.781 6L 111.203 6L 107.047 30L 103.109 30L 103.359 28.1875C 102.099 29.6562 100.63 30.3698 98.9531 30.3281C 97.901 30.3177 96.9792 30.0417 96.1875 29.5C 95.3958 28.9583 94.7812 28.1823 94.3438 27.1719C 93.9167 26.151 93.6823 25.0156 93.6406 23.7656C 93.6094 23.1094 93.625 22.474 93.6875 21.8594L 93.7812 21.1562C 94.0312 19.4271 94.5104 17.9062 95.2188 16.5938C 95.9375 15.2812 96.8125 14.3073 97.8438 13.6719C 98.8854 13.0365 100.042 12.7344 101.312 12.7656ZM 98.1094 21.8594C 98.026 22.651 98 23.3177 98.0312 23.8594C 98.1354 25.6927 98.875 26.625 100.25 26.6562C 101.49 26.7083 102.568 26.125 103.484 24.9062L 104.688 18.1875C 104.281 17.0729 103.469 16.4896 102.25 16.4375C 101.177 16.4062 100.281 16.8229 99.5625 17.6875C 98.8542 18.5417 98.3698 19.9323 98.1094 21.8594Z"/>
<path id="path5_fill" d="M 9.84375 25.2344C 10.0104 24.401 9.43229 23.7969 8.10938 23.4219L 6.6875 23.0625C 3.32292 22.1354 1.6875 20.5 1.78125 18.1562C 1.83333 16.5625 2.53646 15.2656 3.89062 14.2656C 5.25521 13.2552 6.89583 12.7604 8.8125 12.7812C 10.7188 12.8021 12.2604 13.3073 13.4375 14.2969C 14.6146 15.2865 15.2135 16.6042 15.2344 18.25L 10.8594 18.2344C 10.8802 16.7865 10.1615 16.0521 8.70312 16.0312C 8.01562 16.0312 7.41667 16.2031 6.90625 16.5469C 6.40625 16.8906 6.09896 17.3542 5.98438 17.9375C 5.82812 18.7708 6.45833 19.3594 7.875 19.7031L 8.5 19.8438C 9.9375 20.1875 11.0365 20.5833 11.7969 21.0312C 12.5573 21.4688 13.1406 22.0156 13.5469 22.6719C 13.9635 23.3281 14.1562 24.1146 14.125 25.0312C 14.0938 26.1042 13.7448 27.0417 13.0781 27.8438C 12.4219 28.6458 11.5156 29.2656 10.3594 29.7031C 9.21354 30.1406 8.00521 30.3438 6.73438 30.3125C 4.85938 30.2917 3.29688 29.7552 2.04688 28.7031C 0.796875 27.6406 0.161458 26.2708 0.140625 24.5938L 4.29688 24.625C 4.33854 26.2396 5.20312 27.0573 6.89062 27.0781C 7.70312 27.0781 8.36979 26.9115 8.89062 26.5781C 9.42188 26.2448 9.73958 25.7969 9.84375 25.2344ZM 25.1094 8.9375L 24.375 13.0938L 27.1875 13.0938L 26.6094 16.4062L 23.7969 16.4062L 22.3594 24.875C 22.2969 25.4062 22.3385 25.8125 22.4844 26.0938C 22.6302 26.375 22.9844 26.526 23.5469 26.5469C 23.7135 26.5573 24.1615 26.5312 24.8906 26.4688L 24.5781 29.9219C 23.7969 30.1823 22.9531 30.3021 22.0469 30.2812C 20.599 30.2604 19.5208 29.8073 18.8125 28.9219C 18.1042 28.0365 17.8125 26.8385 17.9375 25.3281L 19.3906 16.4062L 17 16.4062L 17.5781 13.0938L 19.9688 13.0938L 20.6875 8.9375L 25.1094 8.9375ZM 36.6094 30C 36.474 29.5729 36.4167 29.0625 36.4375 28.4688C 35.1667 29.7396 33.7292 30.3542 32.125 30.3125C 30.6458 30.2917 29.4167 29.8125 28.4375 28.875C 27.4688 27.9271 27.0156 26.7604 27.0781 25.375C 27.151 23.5312 27.9219 22.1198 29.3906 21.1406C 30.8698 20.151 32.849 19.6562 35.3281 19.6562L 37.3906 19.6875L 37.6094 18.6719C 37.6719 18.3281 37.6875 18 37.6562 17.6875C 37.6042 17.1979 37.4167 16.8177 37.0938 16.5469C 36.7812 16.2656 36.3646 16.1198 35.8438 16.1094C 35.1562 16.0885 34.5729 16.2604 34.0938 16.625C 33.6146 16.9792 33.3073 17.4948 33.1719 18.1719L 28.75 18.1875C 28.8229 16.5729 29.5625 15.2656 30.9688 14.2656C 32.3854 13.2552 34.1302 12.7604 36.2031 12.7812C 38.1198 12.8229 39.6198 13.3958 40.7031 14.5C 41.7865 15.5938 42.2396 17.0052 42.0625 18.7344L 40.7656 26.8281L 40.6875 27.8281C 40.6667 28.5677 40.7552 29.1927 40.9531 29.7031L 40.9375 30L 36.6094 30ZM 33.2188 26.8906C 34.4896 26.9323 35.599 26.3802 36.5469 25.2344L 37.0938 22.3125L 35.5625 22.2969C 33.9375 22.3385 32.7656 22.8333 32.0469 23.7812C 31.7865 24.125 31.625 24.5469 31.5625 25.0469C 31.4792 25.6094 31.5938 26.0573 31.9062 26.3906C 32.2292 26.7135 32.6667 26.8802 33.2188 26.8906ZM 52.5781 8.9375L 51.8438 13.0938L 54.6562 13.0938L 54.0781 16.4062L 51.2656 16.4062L 49.8281 24.875C 49.7656 25.4062 49.8073 25.8125 49.9531 26.0938C 50.099 26.375 50.4531 26.526 51.0156 26.5469C 51.1823 26.5573 51.6302 26.5312 52.3594 26.4688L 52.0469 29.9219C 51.2656 30.1823 50.4219 30.3021 49.5156 30.2812C 48.0677 30.2604 46.9896 29.8073 46.2812 28.9219C 45.5729 28.0365 45.2812 26.8385 45.4062 25.3281L 46.8594 16.4062L 44.4688 16.4062L 45.0469 13.0938L 47.4375 13.0938L 48.1562 8.9375L 52.5781 8.9375ZM 62.3281 30.3125C 60.849 30.3021 59.5365 29.9427 58.3906 29.2344C 57.2552 28.5156 56.4062 27.5365 55.8438 26.2969C 55.2812 25.0469 55.0625 23.6719 55.1875 22.1719L 55.2344 21.5469C 55.3906 19.901 55.8698 18.3906 56.6719 17.0156C 57.474 15.6406 58.5052 14.5833 59.7656 13.8438C 61.026 13.0938 62.4219 12.7396 63.9531 12.7812C 66.1302 12.8229 67.776 13.625 68.8906 15.1875C 70.0156 16.7396 70.4427 18.7083 70.1719 21.0938L 69.9219 23.0156L 59.5625 23.0156C 59.5208 24.1094 59.7865 24.9844 60.3594 25.6406C 60.9323 26.2969 61.7135 26.6354 62.7031 26.6562C 64.3073 26.6979 65.7135 26.0781 66.9219 24.7969L 68.9375 27.2969C 68.3021 28.2552 67.3854 29.0052 66.1875 29.5469C 64.9896 30.0781 63.7031 30.3333 62.3281 30.3125ZM 63.7344 16.4219C 62.9219 16.401 62.1979 16.6562 61.5625 17.1875C 60.9375 17.7188 60.375 18.6406 59.875 19.9531L 65.9375 19.9531L 66.0312 19.5469C 66.0938 19.1302 66.099 18.7344 66.0469 18.3594C 65.9427 17.7552 65.6875 17.2865 65.2812 16.9531C 64.875 16.6094 64.3594 16.4323 63.7344 16.4219Z"/>
<path id="path6_fill" d="M 21.7969 24.8789C 21.4805 27.5859 20.4785 29.6777 18.791 31.1543C 17.1152 32.6191 14.8828 33.3516 12.0938 33.3516C 9.07031 33.3516 6.64453 32.2676 4.81641 30.0996C 3 27.9316 2.0918 25.0312 2.0918 21.3984L 2.0918 18.9375C 2.0918 16.5586 2.51367 14.4668 3.35742 12.6621C 4.21289 10.8574 5.41992 9.47461 6.97852 8.51367C 8.53711 7.54101 10.3418 7.05469 12.3926 7.05469C 15.1113 7.05469 17.291 7.81641 18.9316 9.33984C 20.5723 10.8516 21.5273 12.9492 21.7969 15.6328L 18.4043 15.6328C 18.1113 13.5938 17.4727 12.1172 16.4883 11.2031C 15.5156 10.2891 14.1504 9.83203 12.3926 9.83203C 10.2363 9.83203 8.54297 10.6289 7.3125 12.2227C 6.09375 13.8164 5.48438 16.084 5.48438 19.0254L 5.48438 21.5039C 5.48438 24.2812 6.06445 26.4902 7.22461 28.1309C 8.38477 29.7715 10.0078 30.5918 12.0938 30.5918C 13.9688 30.5918 15.4043 30.1699 16.4004 29.3262C 17.4082 28.4707 18.0762 26.9883 18.4043 24.8789L 21.7969 24.8789ZM 25.0488 23.3145C 25.0488 21.4512 25.4121 19.7754 26.1387 18.2871C 26.877 16.7988 27.8965 15.6504 29.1973 14.8418C 30.5098 14.0332 32.0039 13.6289 33.6797 13.6289C 36.2695 13.6289 38.3613 14.5254 39.9551 16.3184C 41.5605 18.1113 42.3633 20.4961 42.3633 23.4727L 42.3633 23.7012C 42.3633 25.5527 42.0059 27.2168 41.291 28.6934C 40.5879 30.1582 39.5742 31.3008 38.25 32.1211C 36.9375 32.9414 35.4258 33.3516 33.7148 33.3516C 31.1367 33.3516 29.0449 32.4551 27.4395 30.6621C 25.8457 28.8691 25.0488 26.4961 25.0488 23.543L 25.0488 23.3145ZM 28.3184 23.7012C 28.3184 25.8105 28.8047 27.5039 29.7773 28.7812C 30.7617 30.0586 32.0742 30.6973 33.7148 30.6973C 35.3672 30.6973 36.6797 30.0527 37.6523 28.7637C 38.625 27.4629 39.1113 25.6465 39.1113 23.3145C 39.1113 21.2285 38.6133 19.541 37.6172 18.252C 36.6328 16.9512 35.3203 16.3008 33.6797 16.3008C 32.0742 16.3008 30.7793 16.9395 29.7949 18.2168C 28.8105 19.4941 28.3184 21.3223 28.3184 23.7012ZM 49.5176 13.9805L 49.623 16.3711C 51.0762 14.543 52.9746 13.6289 55.3184 13.6289C 59.3379 13.6289 61.3652 15.8965 61.4004 20.4316L 61.4004 33L 58.1484 33L 58.1484 20.4141C 58.1367 19.043 57.8203 18.0293 57.1992 17.373C 56.5898 16.7168 55.6348 16.3887 54.334 16.3887C 53.2793 16.3887 52.3535 16.6699 51.5566 17.2324C 50.7598 17.7949 50.1387 18.5332 49.6934 19.4473L 49.6934 33L 46.4414 33L 46.4414 13.9805L 49.5176 13.9805ZM 70.7168 9.375L 70.7168 13.9805L 74.2676 13.9805L 74.2676 16.4941L 70.7168 16.4941L 70.7168 28.2891C 70.7168 29.0508 70.875 29.625 71.1914 30.0117C 71.5078 30.3867 72.0469 30.5742 72.8086 30.5742C 73.1836 30.5742 73.6992 30.5039 74.3555 30.3633L 74.3555 33C 73.5 33.2344 72.668 33.3516 71.8594 33.3516C 70.4063 33.3516 69.3105 32.9121 68.5723 32.0332C 67.834 31.1543 67.4648 29.9062 67.4648 28.2891L 67.4648 16.4941L 64.002 16.4941L 64.002 13.9805L 67.4648 13.9805L 67.4648 9.375L 70.7168 9.375ZM 89.8242 33C 89.6367 32.625 89.4844 31.957 89.3672 30.9961C 87.8555 32.5664 86.0508 33.3516 83.9531 33.3516C 82.0781 33.3516 80.5371 32.8242 79.3301 31.7695C 78.1348 30.7031 77.5371 29.3555 77.5371 27.7266C 77.5371 25.7461 78.2871 24.2109 79.7871 23.1211C 81.2988 22.0195 83.4199 21.4688 86.1504 21.4688L 89.3145 21.4688L 89.3145 19.9746C 89.3145 18.8379 88.9746 17.9355 88.2949 17.2676C 87.6152 16.5879 86.6133 16.248 85.2891 16.248C 84.1289 16.248 83.1562 16.541 82.3711 17.127C 81.5859 17.7129 81.1934 18.4219 81.1934 19.2539L 77.9238 19.2539C 77.9238 18.3047 78.2578 17.3906 78.9258 16.5117C 79.6055 15.6211 80.5195 14.918 81.668 14.4023C 82.8281 13.8867 84.0996 13.6289 85.4824 13.6289C 87.6738 13.6289 89.3906 14.1797 90.6328 15.2812C 91.875 16.3711 92.5195 17.877 92.5664 19.7988L 92.5664 28.5527C 92.5664 30.2988 92.7891 31.6875 93.2344 32.7188L 93.2344 33L 89.8242 33ZM 84.4277 30.5215C 85.4473 30.5215 86.4141 30.2578 87.3281 29.7305C 88.2422 29.2031 88.9043 28.5176 89.3145 27.6738L 89.3145 23.7715L 86.7656 23.7715C 82.7813 23.7715 80.7891 24.9375 80.7891 27.2695C 80.7891 28.2891 81.1289 29.0859 81.8086 29.6602C 82.4883 30.2344 83.3613 30.5215 84.4277 30.5215ZM 101.197 33L 97.9453 33L 97.9453 13.9805L 101.197 13.9805L 101.197 33ZM 97.6816 8.93555C 97.6816 8.4082 97.8398 7.96289 98.1562 7.59961C 98.4844 7.23633 98.9648 7.05469 99.5977 7.05469C 100.23 7.05469 100.711 7.23633 101.039 7.59961C 101.367 7.96289 101.531 8.4082 101.531 8.93555C 101.531 9.46289 101.367 9.90234 101.039 10.2539C 100.711 10.6055 100.23 10.7812 99.5977 10.7812C 98.9648 10.7812 98.4844 10.6055 98.1562 10.2539C 97.8398 9.90234 97.6816 9.46289 97.6816 8.93555ZM 109.494 13.9805L 109.6 16.3711C 111.053 14.543 112.951 13.6289 115.295 13.6289C 119.314 13.6289 121.342 15.8965 121.377 20.4316L 121.377 33L 118.125 33L 118.125 20.4141C 118.113 19.043 117.797 18.0293 117.176 17.373C 116.566 16.7168 115.611 16.3887 114.311 16.3887C 113.256 16.3887 112.33 16.6699 111.533 17.2324C 110.736 17.7949 110.115 18.5332 109.67 19.4473L 109.67 33L 106.418 33L 106.418 13.9805L 109.494 13.9805ZM 134.174 33.3516C 131.596 33.3516 129.498 32.5078 127.881 30.8203C 126.264 29.1211 125.455 26.8535 125.455 24.0176L 125.455 23.4199C 125.455 21.5332 125.813 19.8516 126.527 18.375C 127.254 16.8867 128.262 15.7266 129.551 14.8945C 130.852 14.0508 132.258 13.6289 133.77 13.6289C 136.242 13.6289 138.164 14.4434 139.535 16.0723C 140.906 17.7012 141.592 20.0332 141.592 23.0684L 141.592 24.4219L 128.707 24.4219C 128.754 26.2969 129.299 27.8145 130.342 28.9746C 131.396 30.123 132.732 30.6973 134.35 30.6973C 135.498 30.6973 136.471 30.4629 137.268 29.9941C 138.064 29.5254 138.762 28.9043 139.359 28.1309L 141.346 29.6777C 139.752 32.127 137.361 33.3516 134.174 33.3516ZM 133.77 16.3008C 132.457 16.3008 131.355 16.7812 130.465 17.7422C 129.574 18.6914 129.023 20.0273 128.812 21.75L 138.34 21.75L 138.34 21.5039C 138.246 19.8516 137.801 18.5742 137.004 17.6719C 136.207 16.7578 135.129 16.3008 133.77 16.3008ZM 154.564 16.8984C 154.072 16.8164 153.539 16.7754 152.965 16.7754C 150.832 16.7754 149.385 17.6836 148.623 19.5L 148.623 33L 145.371 33L 145.371 13.9805L 148.535 13.9805L 148.588 16.1777C 149.654 14.4785 151.166 13.6289 153.123 13.6289C 153.756 13.6289 154.236 13.7109 154.564 13.875L 154.564 16.8984Z"/>
<path id="path7_fill" d="M 0 2C 0 0.895431 0.895431 0 2 0L 211 0C 212.105 0 213 0.895431 213 2L 213 90C 213 91.1046 212.105 92 211 92L 2 92C 0.895431 92 0 91.1046 0 90L 0 2Z"/>
<path id="path8_fill" d="M 14.2031 33C 14.0156 32.625 13.8633 31.957 13.7461 30.9961C 12.2344 32.5664 10.4297 33.3516 8.33203 33.3516C 6.45703 33.3516 4.91602 32.8242 3.70898 31.7695C 2.51367 30.7031 1.91602 29.3555 1.91602 27.7266C 1.91602 25.7461 2.66602 24.2109 4.16602 23.1211C 5.67773 22.0195 7.79883 21.4688 10.5293 21.4688L 13.6934 21.4688L 13.6934 19.9746C 13.6934 18.8379 13.3535 17.9355 12.6738 17.2676C 11.9941 16.5879 10.9922 16.248 9.66797 16.248C 8.50781 16.248 7.53516 16.541 6.75 17.127C 5.96484 17.7129 5.57227 18.4219 5.57227 19.2539L 2.30273 19.2539C 2.30273 18.3047 2.63672 17.3906 3.30469 16.5117C 3.98438 15.6211 4.89844 14.918 6.04688 14.4023C 7.20703 13.8867 8.47852 13.6289 9.86133 13.6289C 12.0527 13.6289 13.7695 14.1797 15.0117 15.2812C 16.2539 16.3711 16.8984 17.877 16.9453 19.7988L 16.9453 28.5527C 16.9453 30.2988 17.168 31.6875 17.6133 32.7188L 17.6133 33L 14.2031 33ZM 8.80664 30.5215C 9.82617 30.5215 10.793 30.2578 11.707 29.7305C 12.6211 29.2031 13.2832 28.5176 13.6934 27.6738L 13.6934 23.7715L 11.1445 23.7715C 7.16016 23.7715 5.16797 24.9375 5.16797 27.2695C 5.16797 28.2891 5.50781 29.0859 6.1875 29.6602C 6.86719 30.2344 7.74023 30.5215 8.80664 30.5215ZM 29.6719 30.6973C 30.832 30.6973 31.8457 30.3457 32.7129 29.6426C 33.5801 28.9395 34.0605 28.0605 34.1543 27.0059L 37.2305 27.0059C 37.1719 28.0957 36.7969 29.1328 36.1055 30.1172C 35.4141 31.1016 34.4883 31.8867 33.3281 32.4727C 32.1797 33.0586 30.9609 33.3516 29.6719 33.3516C 27.082 33.3516 25.0195 32.4902 23.4844 30.7676C 21.9609 29.0332 21.1992 26.666 21.1992 23.666L 21.1992 23.1211C 21.1992 21.2695 21.5391 19.623 22.2188 18.1816C 22.8984 16.7402 23.8711 15.6211 25.1367 14.8242C 26.4141 14.0273 27.9199 13.6289 29.6543 13.6289C 31.7871 13.6289 33.5566 14.2676 34.9629 15.5449C 36.3809 16.8223 37.1367 18.4805 37.2305 20.5195L 34.1543 20.5195C 34.0605 19.2891 33.5918 18.2813 32.748 17.4961C 31.916 16.6992 30.8848 16.3008 29.6543 16.3008C 28.002 16.3008 26.7188 16.8984 25.8047 18.0938C 24.9023 19.2773 24.4512 20.9941 24.4512 23.2441L 24.4512 23.8594C 24.4512 26.0508 24.9023 27.7383 25.8047 28.9219C 26.707 30.1055 27.9961 30.6973 29.6719 30.6973ZM 45.2988 9.375L 45.2988 13.9805L 48.8496 13.9805L 48.8496 16.4941L 45.2988 16.4941L 45.2988 28.2891C 45.2988 29.0508 45.457 29.625 45.7734 30.0117C 46.0898 30.3867 46.6289 30.5742 47.3906 30.5742C 47.7656 30.5742 48.2813 30.5039 48.9375 30.3633L 48.9375 33C 48.082 33.2344 47.25 33.3516 46.4414 33.3516C 44.9883 33.3516 43.8926 32.9121 43.1543 32.0332C 42.416 31.1543 42.0469 29.9062 42.0469 28.2891L 42.0469 16.4941L 38.584 16.4941L 38.584 13.9805L 42.0469 13.9805L 42.0469 9.375L 45.2988 9.375ZM 56.1973 33L 52.9453 33L 52.9453 13.9805L 56.1973 13.9805L 56.1973 33ZM 52.6816 8.93555C 52.6816 8.4082 52.8398 7.96289 53.1562 7.59961C 53.4844 7.23633 53.9648 7.05469 54.5977 7.05469C 55.2305 7.05469 55.7109 7.23633 56.0391 7.59961C 56.3672 7.96289 56.5312 8.4082 56.5312 8.93555C 56.5312 9.46289 56.3672 9.90234 56.0391 10.2539C 55.7109 10.6055 55.2305 10.7812 54.5977 10.7812C 53.9648 10.7812 53.4844 10.6055 53.1562 10.2539C 52.8398 9.90234 52.6816 9.46289 52.6816 8.93555ZM 60.5566 23.3145C 60.5566 21.4512 60.9199 19.7754 61.6465 18.2871C 62.3848 16.7988 63.4043 15.6504 64.7051 14.8418C 66.0176 14.0332 67.5117 13.6289 69.1875 13.6289C 71.7773 13.6289 73.8691 14.5254 75.4629 16.3184C 77.0684 18.1113 77.8711 20.4961 77.8711 23.4727L 77.8711 23.7012C 77.8711 25.5527 77.5137 27.2168 76.7988 28.6934C 76.0957 30.1582 75.082 31.3008 73.7578 32.1211C 72.4453 32.9414 70.9336 33.3516 69.2227 33.3516C 66.6445 33.3516 64.5527 32.4551 62.9473 30.6621C 61.3535 28.8691 60.5566 26.4961 60.5566 23.543L 60.5566 23.3145ZM 63.8262 23.7012C 63.8262 25.8105 64.3125 27.5039 65.2852 28.7812C 66.2695 30.0586 67.582 30.6973 69.2227 30.6973C 70.875 30.6973 72.1875 30.0527 73.1602 28.7637C 74.1328 27.4629 74.6191 25.6465 74.6191 23.3145C 74.6191 21.2285 74.1211 19.541 73.125 18.252C 72.1406 16.9512 70.8281 16.3008 69.1875 16.3008C 67.582 16.3008 66.2871 16.9395 65.3027 18.2168C 64.3184 19.4941 63.8262 21.3223 63.8262 23.7012ZM 85.0254 13.9805L 85.1309 16.3711C 86.584 14.543 88.4824 13.6289 90.8262 13.6289C 94.8457 13.6289 96.873 15.8965 96.9082 20.4316L 96.9082 33L 93.6562 33L 93.6562 20.4141C 93.6445 19.043 93.3281 18.0293 92.707 17.373C 92.0977 16.7168 91.1426 16.3887 89.8418 16.3887C 88.7871 16.3887 87.8613 16.6699 87.0645 17.2324C 86.2676 17.7949 85.6465 18.5332 85.2012 19.4473L 85.2012 33L 81.9492 33L 81.9492 13.9805L 85.0254 13.9805Z"/>
<path id="path9_fill" d="M 11.6543 16.8984C 11.1621 16.8164 10.6289 16.7754 10.0547 16.7754C 7.92187 16.7754 6.47461 17.6836 5.71289 19.5L 5.71289 33L 2.46094 33L 2.46094 13.9805L 5.625 13.9805L 5.67773 16.1777C 6.74414 14.4785 8.25586 13.6289 10.2129 13.6289C 10.8457 13.6289 11.3262 13.7109 11.6543 13.875L 11.6543 16.8984ZM 22.2012 33.3516C 19.623 33.3516 17.5254 32.5078 15.9082 30.8203C 14.291 29.1211 13.4824 26.8535 13.4824 24.0176L 13.4824 23.4199C 13.4824 21.5332 13.8398 19.8516 14.5547 18.375C 15.2812 16.8867 16.2891 15.7266 17.5781 14.8945C 18.8789 14.0508 20.2852 13.6289 21.7969 13.6289C 24.2695 13.6289 26.1914 14.4434 27.5625 16.0723C 28.9336 17.7012 29.6191 20.0332 29.6191 23.0684L 29.6191 24.4219L 16.7344 24.4219C 16.7812 26.2969 17.3262 27.8145 18.3691 28.9746C 19.4238 30.123 20.7598 30.6973 22.377 30.6973C 23.5254 30.6973 24.498 30.4629 25.2949 29.9941C 26.0918 29.5254 26.7891 28.9043 27.3867 28.1309L 29.373 29.6777C 27.7793 32.127 25.3887 33.3516 22.2012 33.3516ZM 21.7969 16.3008C 20.4844 16.3008 19.3828 16.7812 18.4922 17.7422C 17.6016 18.6914 17.0508 20.0273 16.8398 21.75L 26.3672 21.75L 26.3672 21.5039C 26.2734 19.8516 25.8281 18.5742 25.0312 17.6719C 24.2344 16.7578 23.1562 16.3008 21.7969 16.3008ZM 32.6074 23.332C 32.6074 20.4141 33.2988 18.0703 34.6816 16.3008C 36.0645 14.5195 37.875 13.6289 40.1133 13.6289C 42.3398 13.6289 44.1035 14.3906 45.4043 15.9141L 45.4043 6L 48.6562 6L 48.6562 33L 45.668 33L 45.5098 30.9609C 44.209 32.5547 42.3984 33.3516 40.0781 33.3516C 37.875 33.3516 36.0762 32.4492 34.6816 30.6445C 33.2988 28.8398 32.6074 26.4844 32.6074 23.5781L 32.6074 23.332ZM 35.8594 23.7012C 35.8594 25.8574 36.3047 27.5449 37.1953 28.7637C 38.0859 29.9824 39.3164 30.5918 40.8867 30.5918C 42.9492 30.5918 44.4551 29.666 45.4043 27.8145L 45.4043 19.0781C 44.4316 17.2852 42.9375 16.3887 40.9219 16.3887C 39.3281 16.3887 38.0859 17.0039 37.1953 18.2344C 36.3047 19.4648 35.8594 21.2871 35.8594 23.7012ZM 65.4609 31.1191C 64.1953 32.6074 62.3379 33.3516 59.8887 33.3516C 57.8613 33.3516 56.3145 32.7656 55.248 31.5938C 54.1934 30.4102 53.6602 28.6641 53.6484 26.3555L 53.6484 13.9805L 56.9004 13.9805L 56.9004 26.2676C 56.9004 29.1504 58.0723 30.5918 60.416 30.5918C 62.9004 30.5918 64.5527 29.666 65.373 27.8145L 65.373 13.9805L 68.625 13.9805L 68.625 33L 65.5312 33L 65.4609 31.1191ZM 81.2109 30.6973C 82.3711 30.6973 83.3848 30.3457 84.252 29.6426C 85.1191 28.9395 85.5996 28.0605 85.6934 27.0059L 88.7695 27.0059C 88.7109 28.0957 88.3359 29.1328 87.6445 30.1172C 86.9531 31.1016 86.0273 31.8867 84.8672 32.4727C 83.7188 33.0586 82.5 33.3516 81.2109 33.3516C 78.6211 33.3516 76.5586 32.4902 75.0234 30.7676C 73.5 29.0332 72.7383 26.666 72.7383 23.666L 72.7383 23.1211C 72.7383 21.2695 73.0781 19.623 73.7578 18.1816C 74.4375 16.7402 75.4102 15.6211 76.6758 14.8242C 77.9531 14.0273 79.459 13.6289 81.1934 13.6289C 83.3262 13.6289 85.0957 14.2676 86.502 15.5449C 87.9199 16.8223 88.6758 18.4805 88.7695 20.5195L 85.6934 20.5195C 85.5996 19.2891 85.1309 18.2813 84.2871 17.4961C 83.4551 16.6992 82.4238 16.3008 81.1934 16.3008C 79.541 16.3008 78.2578 16.8984 77.3438 18.0938C 76.4414 19.2773 75.9902 20.9941 75.9902 23.2441L 75.9902 23.8594C 75.9902 26.0508 76.4414 27.7383 77.3438 28.9219C 78.2461 30.1055 79.5352 30.6973 81.2109 30.6973ZM 100.318 33.3516C 97.7402 33.3516 95.6426 32.5078 94.0254 30.8203C 92.4082 29.1211 91.5996 26.8535 91.5996 24.0176L 91.5996 23.4199C 91.5996 21.5332 91.957 19.8516 92.6719 18.375C 93.3984 16.8867 94.4063 15.7266 95.6953 14.8945C 96.9961 14.0508 98.4023 13.6289 99.9141 13.6289C 102.387 13.6289 104.309 14.4434 105.68 16.0723C 107.051 17.7012 107.736 20.0332 107.736 23.0684L 107.736 24.4219L 94.8516 24.4219C 94.8984 26.2969 95.4434 27.8145 96.4863 28.9746C 97.541 30.123 98.877 30.6973 100.494 30.6973C 101.643 30.6973 102.615 30.4629 103.412 29.9941C 104.209 29.5254 104.906 28.9043 105.504 28.1309L 107.49 29.6777C 105.896 32.127 103.506 33.3516 100.318 33.3516ZM 99.9141 16.3008C 98.6016 16.3008 97.5 16.7812 96.6094 17.7422C 95.7188 18.6914 95.168 20.0273 94.957 21.75L 104.484 21.75L 104.484 21.5039C 104.391 19.8516 103.945 18.5742 103.148 17.6719C 102.352 16.7578 101.273 16.3008 99.9141 16.3008ZM 120.709 16.8984C 120.217 16.8164 119.684 16.7754 119.109 16.7754C 116.977 16.7754 115.529 17.6836 114.768 19.5L 114.768 33L 111.516 33L 111.516 13.9805L 114.68 13.9805L 114.732 16.1777C 115.799 14.4785 117.311 13.6289 119.268 13.6289C 119.9 13.6289 120.381 13.7109 120.709 13.875L 120.709 16.8984Z"/>
<path id="path10_fill" d="M 231 115.5C 231 179.289 179.289 231 115.5 231C 51.7111 231 0 179.289 0 115.5C 0 51.7111 51.7111 0 115.5 0C 179.289 0 231 51.7111 231 115.5Z"/>
<path id="path11_fill" d="M 13.5352 27.9551C 13.5352 27.0762 13.2012 26.3965 12.5332 25.916C 11.877 25.4238 10.7227 25.002 9.07031 24.6504C 7.42969 24.2988 6.12305 23.877 5.15039 23.3848C 4.18945 22.8926 3.47461 22.3066 3.00586 21.627C 2.54883 20.9473 2.32031 20.1387 2.32031 19.2012C 2.32031 17.6426 2.97656 16.3242 4.28906 15.2461C 5.61328 14.168 7.30078 13.6289 9.35156 13.6289C 11.5078 13.6289 13.2539 14.1855 14.5898 15.2988C 15.9375 16.4121 16.6113 17.8359 16.6113 19.5703L 13.3418 19.5703C 13.3418 18.6797 12.9609 17.9121 12.1992 17.2676C 11.4492 16.623 10.5 16.3008 9.35156 16.3008C 8.16797 16.3008 7.24219 16.5586 6.57422 17.0742C 5.90625 17.5898 5.57227 18.2637 5.57227 19.0957C 5.57227 19.8809 5.88281 20.4727 6.50391 20.8711C 7.125 21.2695 8.24414 21.6504 9.86133 22.0137C 11.4902 22.377 12.8086 22.8105 13.8164 23.3145C 14.8242 23.8184 15.5684 24.4277 16.0488 25.1426C 16.541 25.8457 16.7871 26.707 16.7871 27.7266C 16.7871 29.4258 16.1074 30.791 14.748 31.8223C 13.3887 32.8418 11.625 33.3516 9.45703 33.3516C 7.93359 33.3516 6.58594 33.082 5.41406 32.543C 4.24219 32.0039 3.32227 31.2539 2.6543 30.293C 1.99805 29.3203 1.66992 28.2715 1.66992 27.1465L 4.92188 27.1465C 4.98047 28.2363 5.41406 29.1035 6.22266 29.748C 7.04297 30.3809 8.12109 30.6973 9.45703 30.6973C 10.6875 30.6973 11.6719 30.4512 12.4102 29.959C 13.1602 29.4551 13.5352 28.7871 13.5352 27.9551ZM 25.4355 9.375L 25.4355 13.9805L 28.9863 13.9805L 28.9863 16.4941L 25.4355 16.4941L 25.4355 28.2891C 25.4355 29.0508 25.5938 29.625 25.9102 30.0117C 26.2266 30.3867 26.7656 30.5742 27.5273 30.5742C 27.9023 30.5742 28.418 30.5039 29.0742 30.3633L 29.0742 33C 28.2187 33.2344 27.3867 33.3516 26.5781 33.3516C 25.125 33.3516 24.0293 32.9121 23.291 32.0332C 22.5527 31.1543 22.1836 29.9062 22.1836 28.2891L 22.1836 16.4941L 18.7207 16.4941L 18.7207 13.9805L 22.1836 13.9805L 22.1836 9.375L 25.4355 9.375ZM 31.5879 23.3145C 31.5879 21.4512 31.9512 19.7754 32.6777 18.2871C 33.416 16.7988 34.4355 15.6504 35.7363 14.8418C 37.0488 14.0332 38.543 13.6289 40.2188 13.6289C 42.8086 13.6289 44.9004 14.5254 46.4941 16.3184C 48.0996 18.1113 48.9023 20.4961 48.9023 23.4727L 48.9023 23.7012C 48.9023 25.5527 48.5449 27.2168 47.8301 28.6934C 47.127 30.1582 46.1133 31.3008 44.7891 32.1211C 43.4766 32.9414 41.9648 33.3516 40.2539 33.3516C 37.6758 33.3516 35.584 32.4551 33.9785 30.6621C 32.3848 28.8691 31.5879 26.4961 31.5879 23.543L 31.5879 23.3145ZM 34.8574 23.7012C 34.8574 25.8105 35.3437 27.5039 36.3164 28.7812C 37.3008 30.0586 38.6133 30.6973 40.2539 30.6973C 41.9062 30.6973 43.2188 30.0527 44.1914 28.7637C 45.1641 27.4629 45.6504 25.6465 45.6504 23.3145C 45.6504 21.2285 45.1523 19.541 44.1562 18.252C 43.1719 16.9512 41.8594 16.3008 40.2188 16.3008C 38.6133 16.3008 37.3184 16.9395 36.334 18.2168C 35.3496 19.4941 34.8574 21.3223 34.8574 23.7012ZM 62.1738 16.8984C 61.6816 16.8164 61.1484 16.7754 60.5742 16.7754C 58.4414 16.7754 56.9941 17.6836 56.2324 19.5L 56.2324 33L 52.9805 33L 52.9805 13.9805L 56.1445 13.9805L 56.1973 16.1777C 57.2637 14.4785 58.7754 13.6289 60.7324 13.6289C 61.3652 13.6289 61.8457 13.7109 62.1738 13.875L 62.1738 16.8984ZM 72.7207 33.3516C 70.1426 33.3516 68.0449 32.5078 66.4277 30.8203C 64.8105 29.1211 64.002 26.8535 64.002 24.0176L 64.002 23.4199C 64.002 21.5332 64.3594 19.8516 65.0742 18.375C 65.8008 16.8867 66.8086 15.7266 68.0977 14.8945C 69.3984 14.0508 70.8047 13.6289 72.3164 13.6289C 74.7891 13.6289 76.7109 14.4434 78.082 16.0723C 79.4531 17.7012 80.1387 20.0332 80.1387 23.0684L 80.1387 24.4219L 67.2539 24.4219C 67.3008 26.2969 67.8457 27.8145 68.8887 28.9746C 69.9434 30.123 71.2793 30.6973 72.8965 30.6973C 74.0449 30.6973 75.0176 30.4629 75.8145 29.9941C 76.6113 29.5254 77.3086 28.9043 77.9062 28.1309L 79.8926 29.6777C 78.2988 32.127 75.9082 33.3516 72.7207 33.3516ZM 72.3164 16.3008C 71.0039 16.3008 69.9023 16.7812 69.0117 17.7422C 68.1211 18.6914 67.5703 20.0273 67.3594 21.75L 76.8867 21.75L 76.8867 21.5039C 76.793 19.8516 76.3477 18.5742 75.5508 17.6719C 74.7539 16.7578 73.6758 16.3008 72.3164 16.3008Z"/>
<path id="path12_stroke" d="M 52.4542 1.41421C 53.2353 0.633165 53.2353 -0.633165 52.4542 -1.41421L 39.7263 -14.1421C 38.9452 -14.9232 37.6789 -14.9232 36.8979 -14.1421C 36.1168 -13.3611 36.1168 -12.0948 36.8979 -11.3137L 48.2116 0L 36.8979 11.3137C 36.1168 12.0948 36.1168 13.3611 36.8979 14.1421C 37.6789 14.9232 38.9452 14.9232 39.7263 14.1421L 52.4542 1.41421ZM 0 2L 51.04 2L 51.04 -2L 0 -2L 0 2Z"/>
<path id="path13_fill" d="M 0 2C 0 0.895431 0.895431 0 2 0L 285 0C 286.105 0 287 0.895431 287 2L 287 90C 287 91.1046 286.105 92 285 92L 2 92C 0.895431 92 0 91.1046 0 90L 0 2Z"/>
<path id="path14_stroke" d="M 52.4542 1.41421C 53.2353 0.633165 53.2353 -0.633165 52.4542 -1.41421L 39.7263 -14.1421C 38.9452 -14.9232 37.6789 -14.9232 36.8979 -14.1421C 36.1168 -13.3611 36.1168 -12.0948 36.8979 -11.3137L 48.2116 0L 36.8979 11.3137C 36.1168 12.0948 36.1168 13.3611 36.8979 14.1421C 37.6789 14.9232 38.9452 14.9232 39.7263 14.1421L 52.4542 1.41421ZM 0 2L 51.04 2L 51.04 -2L 0 -2L 0 2Z"/>
<path id="path15_stroke" d="M 72.7763 2.12132C 73.9479 0.949747 73.9479 -0.949747 72.7763 -2.12132L 53.6845 -21.2132C 52.5129 -22.3848 50.6134 -22.3848 49.4418 -21.2132C 48.2702 -20.0416 48.2702 -18.1421 49.4418 -16.9706L 66.4124 0L 49.4418 16.9706C 48.2702 18.1421 48.2702 20.0416 49.4418 21.2132C 50.6134 22.3848 52.5129 22.3848 53.6845 21.2132L 72.7763 2.12132ZM 0 3L 70.655 3L 70.655 -3L 0 -3L 0 3Z"/>
<path id="path16_stroke" d="M 72.7763 2.12132C 73.9479 0.949747 73.9479 -0.949747 72.7763 -2.12132L 53.6845 -21.2132C 52.5129 -22.3848 50.6134 -22.3848 49.4418 -21.2132C 48.2702 -20.0416 48.2702 -18.1421 49.4418 -16.9706L 66.4124 0L 49.4418 16.9706C 48.2702 18.1421 48.2702 20.0416 49.4418 21.2132C 50.6134 22.3848 52.5129 22.3848 53.6845 21.2132L 72.7763 2.12132ZM 0 3L 70.655 3L 70.655 -3L 0 -3L 0 3Z"/>
</defs>
</svg>
